<svg xmlns="http://www.w3.org/2000/svg" xmlns:xlink="http://www.w3.org/1999/xlink" width="1080" zoomAndPan="magnify" viewBox="0 0 810 1439.999935" height="1920" preserveAspectRatio="xMidYMid meet" version="1.0"><defs><clipPath id="8b5d14a87e"><path d="M 142 0 L 668 0 L 668 318.75 L 142 318.75 Z M 142 0 " clip-rule="nonzero"/></clipPath><clipPath id="8b5a3cd86d"><path d="M 142 1180.214844 L 668 1180.214844 L 668 1439.714844 L 142 1439.714844 Z M 142 1180.214844 " clip-rule="nonzero"/></clipPath></defs><g clip-path="url(#8b5d14a87e)"><path fill="#ffffff" d="M 571.789062 221.820312 C 587.855469 224.96875 605.8125 223.082031 622.820312 216.148438 C 649.28125 205.125 668.179688 171.417969 667.238281 135.824219 C 666.605469 108.417969 654.636719 86.367188 633.53125 74.082031 L 629.75 62.113281 L 647.390625 27.777344 L 645.5 0.0585938 L 164.175781 0.0585938 L 162.285156 27.777344 L 179.925781 62.113281 L 176.144531 74.082031 C 155.355469 86.367188 143.070312 108.417969 142.441406 135.824219 C 141.8125 171.417969 160.394531 205.125 186.855469 216.148438 C 198.511719 220.875 210.480469 223.394531 222.136719 223.394531 C 227.492188 223.394531 232.53125 222.765625 237.570312 221.820312 C 244.5 228.121094 272.222656 254.894531 282.933594 286.710938 L 279.46875 286.710938 C 271.59375 286.710938 265.292969 293.328125 265.292969 301.203125 L 265.292969 304.351562 C 265.292969 312.226562 271.59375 318.839844 279.46875 318.839844 L 287.34375 318.839844 L 267.8125 1199.277344 L 261.828125 1199.277344 C 250.488281 1199.277344 241.035156 1208.726562 241.035156 1220.382812 L 241.035156 1229.203125 C 241.035156 1240.855469 250.171875 1250.308594 261.828125 1250.308594 C 262.457031 1250.308594 263.402344 1250.308594 264.660156 1251.566406 C 268.757812 1255.664062 270.332031 1267.949219 270.332031 1276.453125 L 253.007812 1276.453125 C 241.667969 1276.453125 232.214844 1285.902344 232.214844 1297.558594 L 232.214844 1306.378906 C 232.214844 1311.417969 233.792969 1316.144531 236.625 1319.609375 L 225.601562 1319.609375 C 211.425781 1319.609375 199.769531 1331.578125 199.769531 1346.066406 L 199.769531 1360.242188 C 199.769531 1367.171875 202.292969 1373.160156 206.386719 1377.882812 L 200.714844 1377.882812 C 180.871094 1377.882812 164.804688 1394.578125 164.804688 1414.738281 L 164.804688 1423.558594 C 164.804688 1444.035156 180.871094 1460.414062 200.714844 1460.414062 L 608.332031 1460.414062 C 628.175781 1460.414062 644.242188 1443.71875 644.242188 1423.558594 L 644.242188 1414.738281 C 644.242188 1394.265625 628.175781 1377.882812 608.332031 1377.882812 L 602.660156 1377.882812 C 606.753906 1373.160156 609.277344 1366.859375 609.277344 1360.242188 L 609.277344 1346.066406 C 609.277344 1331.261719 597.621094 1319.609375 583.445312 1319.609375 L 572.421875 1319.609375 C 575.253906 1315.828125 576.832031 1311.417969 576.832031 1306.378906 L 576.832031 1297.558594 C 576.832031 1285.902344 567.695312 1276.453125 556.039062 1276.453125 L 538.714844 1276.453125 C 538.714844 1267.949219 540.289062 1255.976562 544.386719 1251.566406 C 545.644531 1250.308594 546.589844 1250.308594 547.21875 1250.308594 C 558.558594 1250.308594 568.011719 1240.855469 568.011719 1229.203125 L 568.011719 1220.382812 C 568.011719 1208.726562 558.875 1199.277344 547.21875 1199.277344 L 541.234375 1199.277344 L 521.703125 318.839844 L 529.578125 318.839844 C 537.453125 318.839844 543.753906 312.226562 543.753906 304.351562 L 543.753906 301.203125 C 543.753906 293.328125 537.453125 286.710938 529.578125 286.710938 L 526.113281 286.710938 C 537.140625 254.582031 564.859375 228.121094 571.789062 221.820312 Z M 172.679688 9.191406 L 636.679688 9.191406 L 637.625 21.792969 L 405.46875 21.792969 C 405.152344 21.792969 404.839844 21.792969 404.523438 21.792969 C 404.207031 21.792969 403.894531 21.792969 403.578125 21.792969 L 171.421875 21.792969 Z M 174.570312 31.242188 L 403.894531 31.242188 C 404.207031 31.242188 404.523438 31.242188 404.839844 31.242188 C 405.152344 31.242188 405.46875 31.242188 405.785156 31.242188 L 635.105469 31.242188 L 622.507812 55.5 L 187.171875 55.5 Z M 624.710938 69.359375 C 623.449219 68.730469 622.191406 68.414062 621.246094 67.785156 C 617.152344 66.207031 612.425781 65.261719 607.386719 64.320312 L 623.449219 64.320312 Z M 553.519531 64.632812 C 533.988281 66.207031 512.886719 69.042969 492.09375 71.878906 C 461.222656 75.972656 429.09375 80.382812 405.152344 80.382812 C 380.898438 80.382812 349.082031 75.972656 318.210938 71.878906 C 297.421875 69.042969 276.316406 66.207031 256.785156 64.632812 Z M 202.605469 64.632812 C 197.566406 65.261719 192.839844 66.523438 188.746094 68.097656 C 187.484375 68.414062 186.226562 69.042969 185.28125 69.671875 L 186.855469 64.949219 L 202.605469 64.949219 Z M 190.320312 207.332031 C 167.640625 197.878906 150.945312 167.011719 151.574219 135.824219 C 152.207031 107.160156 166.695312 85.738281 191.582031 76.605469 C 200.085938 73.453125 211.742188 72.195312 225.285156 72.195312 C 251.117188 72.195312 284.191406 76.605469 316.324219 81.015625 C 349.082031 85.425781 379.953125 89.519531 404.523438 89.519531 C 429.09375 89.519531 460.277344 85.425781 492.722656 81.015625 C 541.863281 74.398438 592.582031 67.46875 617.464844 76.605469 C 642.351562 85.738281 656.839844 107.160156 657.472656 135.824219 C 658.101562 167.011719 641.40625 197.878906 618.726562 207.332031 C 597.621094 216.148438 575.570312 216.148438 557.929688 207.644531 C 547.21875 202.605469 539.34375 194.414062 537.140625 186.855469 C 533.988281 175.515625 533.046875 154.09375 543.125 141.179688 C 544.386719 139.289062 545.960938 138.03125 547.535156 136.453125 C 551.945312 133.933594 556.355469 132.042969 560.449219 130.785156 C 563.285156 130.15625 566.121094 130.15625 569.269531 130.15625 C 571.789062 130.15625 573.679688 128.265625 573.996094 126.058594 C 574.308594 123.539062 572.421875 121.335938 569.902344 121.019531 C 566.433594 120.390625 562.65625 120.703125 558.875 121.648438 C 552.890625 122.59375 547.21875 124.800781 542.808594 128.265625 C 524.226562 138.972656 506.585938 158.191406 503.121094 167.953125 C 502.175781 171.105469 500.914062 171.734375 500.601562 172.050781 C 499.339844 171.734375 494.929688 166.378906 495.246094 151.257812 C 495.558594 129.210938 518.871094 107.472656 543.753906 105.269531 C 571.789062 103.0625 601.714844 110.9375 605.496094 133.304688 C 607.699219 145.90625 604.867188 156.300781 597.621094 162.914062 C 590.691406 169.53125 580.925781 171.105469 574.941406 169.53125 C 568.957031 168.269531 566.433594 162.601562 565.804688 157.558594 C 565.175781 152.519531 566.75 145.589844 573.050781 142.441406 C 575.253906 141.496094 576.199219 138.660156 575.253906 136.453125 C 574.308594 134.25 571.789062 132.988281 569.269531 133.933594 C 556.355469 138.660156 548.164062 150 548.796875 161.65625 C 549.425781 173.308594 558.875 182.445312 573.367188 185.910156 C 587.855469 189.375 602.660156 186.855469 613.6875 178.664062 C 624.394531 171.105469 631.011719 159.132812 632.269531 145.273438 C 633.847656 129.839844 629.75 115.980469 620.617188 104.953125 C 610.851562 93.929688 596.046875 87 579.664062 86.367188 C 549.738281 85.109375 493.984375 96.132812 477.605469 99.597656 C 458.703125 103.695312 405.46875 104.007812 404.207031 104.007812 C 402.632812 104.007812 349.710938 103.695312 330.8125 99.597656 C 314.433594 96.132812 258.675781 85.109375 228.75 86.367188 C 212.371094 87 197.25 93.929688 187.800781 104.953125 C 178.664062 115.664062 174.570312 129.523438 176.144531 145.273438 C 177.722656 159.449219 184.335938 171.105469 194.730469 178.664062 C 205.757812 186.539062 220.5625 189.058594 235.050781 185.910156 C 249.855469 182.445312 258.992188 173.308594 259.621094 161.65625 C 260.25 149.683594 252.0625 138.660156 239.148438 133.933594 C 236.941406 132.988281 234.105469 134.25 233.160156 136.453125 C 232.214844 138.660156 233.160156 141.496094 235.367188 142.441406 C 241.667969 145.589844 243.242188 152.519531 242.613281 157.558594 C 241.980469 162.285156 239.460938 167.953125 233.476562 169.53125 C 227.492188 171.105469 217.726562 169.53125 210.796875 162.914062 C 203.550781 156.300781 200.714844 145.90625 202.921875 133.304688 C 206.703125 110.9375 236.625 103.0625 264.660156 105.269531 C 289.863281 107.160156 312.859375 129.210938 313.171875 151.257812 C 313.488281 166.378906 309.078125 171.734375 307.816406 172.050781 C 307.503906 172.050781 306.242188 171.105469 305.296875 167.953125 C 301.832031 158.191406 284.191406 138.660156 265.605469 128.265625 C 260.882812 124.800781 255.527344 122.59375 249.542969 121.648438 C 245.761719 120.703125 241.980469 120.390625 238.515625 121.019531 C 235.996094 121.335938 234.421875 123.539062 234.421875 126.058594 C 234.738281 128.578125 236.625 130.46875 239.148438 130.15625 C 242.296875 130.15625 245.132812 130.15625 247.964844 130.785156 C 252.0625 131.730469 256.472656 133.621094 260.882812 136.453125 C 262.457031 137.714844 264.03125 139.289062 265.292969 141.179688 C 275.371094 154.09375 274.425781 175.515625 271.277344 186.855469 C 269.070312 194.414062 261.195312 202.289062 250.800781 207.644531 C 233.792969 216.148438 211.425781 216.148438 190.320312 207.332031 Z M 405.785156 184.648438 C 405.46875 184.648438 405.152344 184.648438 404.839844 184.648438 C 404.523438 184.648438 404.207031 184.648438 403.894531 184.648438 C 360.738281 194.101562 360.738281 266.550781 361.367188 286.710938 L 350.972656 286.710938 C 345.933594 258.046875 338.058594 236.3125 329.238281 220.246094 C 332.386719 212.371094 346.5625 182.761719 375.859375 168.269531 C 388.144531 176.144531 400.429688 181.5 402.949219 182.445312 C 403.578125 182.761719 404.207031 182.761719 404.839844 182.761719 C 405.46875 182.761719 406.097656 182.761719 406.730469 182.445312 C 409.25 181.5 421.535156 176.144531 433.820312 168.269531 C 463.113281 182.761719 477.289062 212.371094 480.4375 220.246094 C 471.621094 236.3125 463.746094 257.730469 458.703125 286.710938 L 448.308594 286.710938 C 449.253906 266.550781 448.9375 194.101562 405.785156 184.648438 Z M 406.097656 213.316406 C 405.46875 213 404.523438 213 403.894531 213.316406 C 401.058594 213.945312 376.171875 221.503906 377.75 286.710938 L 370.816406 286.710938 C 370.503906 279.152344 370.1875 262.140625 373.023438 244.816406 C 376.171875 224.339844 384.679688 199.140625 404.839844 194.101562 C 439.804688 202.921875 439.804688 269.070312 438.859375 286.710938 L 431.929688 286.710938 C 433.503906 222.765625 409.5625 214.261719 406.097656 213.316406 Z M 422.792969 286.710938 L 386.882812 286.710938 C 385.625 237.253906 400.429688 225.285156 404.839844 223.082031 C 409.25 225.285156 424.054688 237.253906 422.792969 286.710938 Z M 526.429688 175.199219 C 518.871094 178.035156 501.859375 186.539062 486.109375 210.480469 C 480.125 198.195312 466.578125 175.828125 442.324219 162.285156 C 449.882812 156.300781 456.183594 149.683594 458.703125 142.125 C 469.414062 145.273438 479.496094 149.054688 486.425781 153.78125 C 486.738281 169.214844 491.78125 179.925781 499.339844 181.5 C 501.230469 181.816406 508.476562 182.128906 512.253906 171.417969 C 514.144531 166.378906 520.445312 158.503906 528.636719 150.945312 C 526.429688 158.820312 525.800781 167.324219 526.429688 175.199219 Z M 404.839844 172.996094 C 388.457031 166.066406 364.519531 151.890625 360.109375 139.917969 C 380.898438 134.878906 401.6875 132.675781 404.839844 132.359375 C 407.988281 132.675781 428.777344 134.878906 449.570312 139.917969 C 445.160156 151.890625 421.21875 166.066406 404.839844 172.996094 Z M 487.371094 143.382812 C 460.59375 128.265625 408.933594 123.222656 405.46875 122.910156 C 405.152344 122.910156 405.152344 122.910156 404.839844 122.910156 C 404.523438 122.910156 404.523438 122.910156 404.207031 122.910156 C 400.742188 123.222656 349.082031 128.265625 322.308594 143.382812 C 318.527344 125.429688 304.039062 109.050781 285.453125 101.175781 C 304.351562 104.007812 321.675781 107.472656 329.554688 109.050781 C 349.714844 113.144531 402.632812 113.460938 404.839844 113.460938 C 407.042969 113.460938 459.964844 113.144531 480.125 109.050781 C 488 107.472656 505.324219 104.007812 524.226562 101.175781 C 505.640625 109.050781 490.835938 125.429688 487.371094 143.382812 Z M 323.253906 153.78125 C 330.183594 149.054688 340.261719 145.273438 350.972656 142.125 C 353.492188 149.371094 359.792969 156.300781 367.351562 162.285156 C 343.097656 175.828125 329.554688 198.511719 323.566406 210.480469 C 307.816406 186.539062 290.808594 178.035156 283.246094 175.199219 C 283.878906 167.324219 283.246094 158.820312 281.042969 150.945312 C 289.230469 158.503906 295.53125 166.378906 297.421875 171.417969 C 301.203125 182.128906 308.132812 181.816406 310.335938 181.5 C 317.898438 180.238281 322.9375 169.214844 323.253906 153.78125 Z M 281.988281 184.964844 C 294.273438 190.320312 327.976562 212.054688 341.523438 286.710938 L 328.292969 286.710938 C 320.734375 229.066406 288.289062 209.21875 273.167969 202.921875 C 276.945312 198.824219 279.78125 194.101562 281.042969 189.375 C 281.355469 187.800781 281.671875 186.539062 281.988281 184.964844 Z M 527.691406 184.964844 C 528.003906 186.539062 528.320312 188.113281 528.636719 189.375 C 529.894531 194.101562 532.730469 198.824219 536.511719 202.921875 C 521.390625 209.21875 488.945312 229.066406 481.382812 286.710938 L 468.152344 286.710938 C 481.699219 212.054688 515.40625 190.320312 527.691406 184.964844 Z M 614.945312 132.042969 C 611.796875 112.199219 592.265625 99.285156 564.546875 96.449219 C 570.214844 96.132812 575.253906 96.132812 579.980469 96.132812 C 593.839844 96.765625 606.441406 102.433594 614.316406 111.570312 C 621.875 120.390625 625.027344 131.730469 623.765625 144.644531 C 622.507812 156.300781 617.464844 165.433594 608.960938 171.417969 C 603.289062 175.515625 596.675781 177.71875 589.429688 178.035156 C 594.46875 176.460938 599.824219 173.941406 604.234375 169.84375 C 611.164062 163.859375 618.410156 152.203125 614.945312 132.042969 Z M 205.125 170.160156 C 209.535156 174.253906 214.578125 176.773438 219.929688 178.351562 C 212.6875 177.71875 206.070312 175.515625 200.402344 171.734375 C 191.894531 165.75 186.855469 156.300781 185.597656 144.960938 C 184.335938 132.042969 187.484375 120.703125 195.046875 111.882812 C 202.921875 102.75 215.519531 97.078125 229.382812 96.449219 C 230.957031 96.449219 232.53125 96.449219 234.105469 96.449219 C 237.570312 96.449219 241.035156 96.449219 244.816406 96.765625 C 217.097656 99.597656 197.566406 112.515625 194.417969 132.359375 C 191.265625 152.203125 198.511719 163.859375 205.125 170.160156 Z M 248.28125 218.671875 C 250.800781 217.726562 253.007812 216.78125 255.210938 215.835938 C 258.675781 213.945312 262.140625 212.054688 264.976562 209.851562 C 273.796875 212.683594 310.335938 227.175781 318.527344 286.710938 L 292.382812 286.710938 C 283.5625 255.527344 259.621094 229.695312 248.28125 218.671875 Z M 608.644531 1387.648438 C 623.449219 1387.648438 635.105469 1399.933594 635.105469 1415.367188 L 635.105469 1424.1875 C 635.105469 1439.625 623.136719 1451.910156 608.644531 1451.910156 L 201.03125 1451.910156 C 186.226562 1451.910156 174.570312 1439.625 174.570312 1424.1875 L 174.570312 1415.367188 C 174.570312 1399.933594 186.542969 1387.648438 201.03125 1387.648438 Z M 583.761719 1329.375 C 592.894531 1329.375 600.457031 1337.25 600.457031 1346.699219 L 600.457031 1360.875 C 600.457031 1370.324219 592.894531 1378.199219 583.761719 1378.199219 L 225.917969 1378.199219 C 216.78125 1378.199219 209.222656 1370.324219 209.222656 1360.875 L 209.222656 1346.699219 C 209.222656 1337.25 216.78125 1329.375 225.917969 1329.375 Z M 556.671875 1285.902344 C 562.96875 1285.902344 568.011719 1291.257812 568.011719 1297.871094 L 568.011719 1306.691406 C 568.011719 1313.308594 562.96875 1318.664062 556.671875 1318.664062 L 253.007812 1318.664062 C 246.707031 1318.664062 241.667969 1313.308594 241.667969 1306.691406 L 241.667969 1297.871094 C 241.667969 1291.257812 246.707031 1285.902344 253.007812 1285.902344 Z M 274.742188 1250.621094 L 534.933594 1250.621094 C 530.839844 1258.8125 530.210938 1270.46875 530.210938 1276.765625 L 279.78125 1276.765625 C 279.46875 1270.46875 278.835938 1258.8125 274.742188 1250.621094 Z M 547.851562 1208.410156 C 554.148438 1208.410156 559.191406 1213.765625 559.191406 1220.382812 L 559.191406 1229.203125 C 559.191406 1235.816406 554.148438 1241.171875 547.851562 1241.171875 L 261.828125 1241.171875 C 255.527344 1241.171875 250.488281 1235.816406 250.488281 1229.203125 L 250.488281 1220.382812 C 250.488281 1213.765625 255.527344 1208.410156 261.828125 1208.410156 Z M 532.414062 1199.277344 L 277.261719 1199.277344 L 296.792969 318.839844 L 512.886719 318.839844 Z M 530.210938 295.847656 C 532.730469 295.847656 534.933594 298.050781 534.933594 300.886719 L 534.933594 304.035156 C 534.933594 306.871094 532.730469 309.078125 530.210938 309.078125 L 279.78125 309.078125 C 277.261719 309.078125 275.058594 306.871094 275.058594 304.035156 L 275.058594 300.886719 C 275.058594 298.050781 277.261719 295.847656 279.78125 295.847656 Z M 516.980469 286.710938 L 490.835938 286.710938 C 499.023438 227.175781 535.566406 212.683594 544.386719 209.851562 C 547.21875 212.054688 550.683594 213.945312 554.148438 215.835938 C 556.355469 217.09375 558.875 218.039062 561.082031 218.671875 C 550.054688 229.695312 526.113281 255.527344 516.980469 286.710938 Z M 516.980469 286.710938 " fill-opacity="1" fill-rule="nonzero"/></g><g clip-path="url(#8b5a3cd86d)"><path fill="#ffffff" d="M 571.789062 201.347656 C 587.855469 204.496094 605.8125 202.605469 622.820312 195.675781 C 649.28125 184.652344 668.179688 150.945312 667.238281 115.351562 C 666.605469 87.945312 654.636719 65.894531 633.53125 53.609375 L 629.75 41.640625 L 647.390625 7.304688 L 645.5 -20.414062 L 164.175781 -20.414062 L 162.285156 7.304688 L 179.925781 41.640625 L 176.144531 53.609375 C 155.355469 65.894531 143.070312 87.945312 142.441406 115.351562 C 141.8125 150.945312 160.394531 184.652344 186.855469 195.675781 C 198.511719 200.402344 210.480469 202.921875 222.136719 202.921875 C 227.492188 202.921875 232.53125 202.292969 237.570312 201.347656 C 244.5 207.648438 272.222656 234.421875 282.933594 266.238281 L 279.46875 266.238281 C 271.59375 266.238281 265.292969 272.851562 265.292969 280.726562 L 265.292969 283.878906 C 265.292969 291.753906 271.59375 298.367188 279.46875 298.367188 L 287.34375 298.367188 L 267.8125 1178.804688 L 261.828125 1178.804688 C 250.488281 1178.804688 241.035156 1188.253906 241.035156 1199.910156 L 241.035156 1208.726562 C 241.035156 1220.382812 250.171875 1229.832031 261.828125 1229.832031 C 262.457031 1229.832031 263.402344 1229.832031 264.660156 1231.09375 C 268.757812 1235.1875 270.332031 1247.472656 270.332031 1255.980469 L 253.007812 1255.980469 C 241.667969 1255.980469 232.214844 1265.429688 232.214844 1277.085938 L 232.214844 1285.90625 C 232.214844 1290.945312 233.792969 1295.667969 236.625 1299.132812 L 225.601562 1299.132812 C 211.425781 1299.132812 199.769531 1311.105469 199.769531 1325.59375 L 199.769531 1339.769531 C 199.769531 1346.699219 202.292969 1352.683594 206.386719 1357.410156 L 200.714844 1357.410156 C 180.871094 1357.410156 164.804688 1374.105469 164.804688 1394.265625 L 164.804688 1403.085938 C 164.804688 1423.5625 180.871094 1439.941406 200.714844 1439.941406 L 608.332031 1439.941406 C 628.175781 1439.941406 644.242188 1423.246094 644.242188 1403.085938 L 644.242188 1394.265625 C 644.242188 1373.789062 628.175781 1357.410156 608.332031 1357.410156 L 602.660156 1357.410156 C 606.753906 1352.683594 609.277344 1346.386719 609.277344 1339.769531 L 609.277344 1325.59375 C 609.277344 1310.789062 597.621094 1299.132812 583.445312 1299.132812 L 572.421875 1299.132812 C 575.253906 1295.355469 576.832031 1290.945312 576.832031 1285.90625 L 576.832031 1277.085938 C 576.832031 1265.429688 567.695312 1255.980469 556.039062 1255.980469 L 538.714844 1255.980469 C 538.714844 1247.472656 540.289062 1235.503906 544.386719 1231.09375 C 545.644531 1229.832031 546.589844 1229.832031 547.21875 1229.832031 C 558.558594 1229.832031 568.011719 1220.382812 568.011719 1208.726562 L 568.011719 1199.910156 C 568.011719 1188.253906 558.875 1178.804688 547.21875 1178.804688 L 541.234375 1178.804688 L 521.703125 298.367188 L 529.578125 298.367188 C 537.453125 298.367188 543.753906 291.753906 543.753906 283.878906 L 543.753906 280.726562 C 543.753906 272.851562 537.453125 266.238281 529.578125 266.238281 L 526.113281 266.238281 C 537.140625 234.105469 564.859375 207.648438 571.789062 201.347656 Z M 172.679688 -11.28125 L 636.679688 -11.28125 L 637.625 1.320312 L 405.46875 1.320312 C 405.152344 1.320312 404.839844 1.320312 404.523438 1.320312 C 404.207031 1.320312 403.894531 1.320312 403.578125 1.320312 L 171.421875 1.320312 Z M 174.570312 10.769531 L 403.894531 10.769531 C 404.207031 10.769531 404.523438 10.769531 404.839844 10.769531 C 405.152344 10.769531 405.46875 10.769531 405.785156 10.769531 L 635.105469 10.769531 L 622.507812 35.023438 L 187.171875 35.023438 Z M 624.710938 48.886719 C 623.449219 48.253906 622.191406 47.941406 621.246094 47.308594 C 617.152344 45.734375 612.425781 44.789062 607.386719 43.84375 L 623.449219 43.84375 Z M 553.519531 44.160156 C 533.988281 45.734375 512.886719 48.570312 492.09375 51.40625 C 461.222656 55.5 429.09375 59.910156 405.152344 59.910156 C 380.898438 59.910156 349.082031 55.5 318.210938 51.40625 C 297.421875 48.570312 276.316406 45.734375 256.785156 44.160156 Z M 202.605469 44.160156 C 197.566406 44.789062 192.839844 46.050781 188.746094 47.625 C 187.484375 47.941406 186.226562 48.570312 185.28125 49.199219 L 186.855469 44.476562 L 202.605469 44.476562 Z M 190.320312 186.855469 C 167.640625 177.40625 150.945312 146.535156 151.574219 115.351562 C 152.207031 86.6875 166.695312 65.265625 191.582031 56.128906 C 200.085938 52.980469 211.742188 51.71875 225.285156 51.71875 C 251.117188 51.71875 284.191406 56.128906 316.324219 60.539062 C 349.082031 64.949219 379.953125 69.046875 404.523438 69.046875 C 429.09375 69.046875 460.277344 64.949219 492.722656 60.539062 C 541.863281 53.925781 592.582031 46.996094 617.464844 56.128906 C 642.351562 65.265625 656.839844 86.6875 657.472656 115.351562 C 658.101562 146.535156 641.40625 177.40625 618.726562 186.855469 C 597.621094 195.675781 575.570312 195.675781 557.929688 187.171875 C 547.21875 182.132812 539.34375 173.941406 537.140625 166.382812 C 533.988281 155.042969 533.046875 133.621094 543.125 120.707031 C 544.386719 118.816406 545.960938 117.554688 547.535156 115.980469 C 551.945312 113.460938 556.355469 111.570312 560.449219 110.3125 C 563.285156 109.679688 566.121094 109.679688 569.269531 109.679688 C 571.789062 109.679688 573.679688 107.789062 573.996094 105.585938 C 574.308594 103.066406 572.421875 100.859375 569.902344 100.546875 C 566.433594 99.914062 562.65625 100.230469 558.875 101.175781 C 552.890625 102.121094 547.21875 104.324219 542.808594 107.789062 C 524.226562 118.5 506.585938 137.714844 503.121094 147.480469 C 502.175781 150.632812 500.914062 151.261719 500.601562 151.578125 C 499.339844 151.261719 494.929688 145.90625 495.246094 130.785156 C 495.558594 108.734375 518.871094 87 543.753906 84.796875 C 571.789062 82.589844 601.714844 90.464844 605.496094 112.832031 C 607.699219 125.429688 604.867188 135.828125 597.621094 142.441406 C 590.691406 149.054688 580.925781 150.632812 574.941406 149.054688 C 568.957031 147.796875 566.433594 142.125 565.804688 137.085938 C 565.175781 132.046875 566.75 125.117188 573.050781 121.964844 C 575.253906 121.019531 576.199219 118.1875 575.253906 115.980469 C 574.308594 113.777344 571.789062 112.515625 569.269531 113.460938 C 556.355469 118.1875 548.164062 129.527344 548.796875 141.179688 C 549.425781 152.835938 558.875 161.972656 573.367188 165.4375 C 587.855469 168.902344 602.660156 166.382812 613.6875 158.191406 C 624.394531 150.632812 631.011719 138.660156 632.269531 124.800781 C 633.847656 109.367188 629.75 95.503906 620.617188 84.480469 C 610.851562 73.457031 596.046875 66.523438 579.664062 65.894531 C 549.738281 64.636719 493.984375 75.660156 477.605469 79.125 C 458.703125 83.21875 405.46875 83.535156 404.207031 83.535156 C 402.632812 83.535156 349.710938 83.21875 330.8125 79.125 C 314.433594 75.660156 258.675781 64.636719 228.75 65.894531 C 212.371094 66.523438 197.25 73.457031 187.800781 84.480469 C 178.664062 95.191406 174.570312 109.050781 176.144531 124.800781 C 177.722656 138.976562 184.335938 150.632812 194.730469 158.191406 C 205.757812 166.066406 220.5625 168.585938 235.050781 165.4375 C 249.855469 161.972656 258.992188 152.835938 259.621094 141.179688 C 260.25 129.210938 252.0625 118.1875 239.148438 113.460938 C 236.941406 112.515625 234.105469 113.777344 233.160156 115.980469 C 232.214844 118.1875 233.160156 121.019531 235.367188 121.964844 C 241.667969 125.117188 243.242188 132.046875 242.613281 137.085938 C 241.980469 141.8125 239.460938 147.480469 233.476562 149.054688 C 227.492188 150.632812 217.726562 149.054688 210.796875 142.441406 C 203.550781 135.828125 200.714844 125.429688 202.921875 112.832031 C 206.703125 90.464844 236.625 82.589844 264.660156 84.796875 C 289.863281 86.6875 312.859375 108.734375 313.171875 130.785156 C 313.488281 145.90625 309.078125 151.261719 307.816406 151.578125 C 307.503906 151.578125 306.242188 150.632812 305.296875 147.480469 C 301.832031 137.714844 284.191406 118.1875 265.605469 107.789062 C 260.882812 104.324219 255.527344 102.121094 249.542969 101.175781 C 245.761719 100.230469 241.980469 99.914062 238.515625 100.546875 C 235.996094 100.859375 234.421875 103.066406 234.421875 105.585938 C 234.738281 108.105469 236.625 109.996094 239.148438 109.679688 C 242.296875 109.679688 245.132812 109.679688 247.964844 110.3125 C 252.0625 111.257812 256.472656 113.144531 260.882812 115.980469 C 262.457031 117.242188 264.03125 118.816406 265.292969 120.707031 C 275.371094 133.621094 274.425781 155.042969 271.277344 166.382812 C 269.070312 173.941406 261.195312 181.816406 250.800781 187.171875 C 233.792969 195.675781 211.425781 195.675781 190.320312 186.855469 Z M 405.785156 164.175781 C 405.46875 164.175781 405.152344 164.175781 404.839844 164.175781 C 404.523438 164.175781 404.207031 164.175781 403.894531 164.175781 C 360.738281 173.625 360.738281 246.078125 361.367188 266.238281 L 350.972656 266.238281 C 345.933594 237.574219 338.058594 215.835938 329.238281 199.773438 C 332.386719 191.898438 346.5625 162.285156 375.859375 147.796875 C 388.144531 155.671875 400.429688 161.027344 402.949219 161.972656 C 403.578125 162.285156 404.207031 162.285156 404.839844 162.285156 C 405.46875 162.285156 406.097656 162.285156 406.730469 161.972656 C 409.25 161.027344 421.535156 155.671875 433.820312 147.796875 C 463.113281 162.285156 477.289062 191.898438 480.4375 199.773438 C 471.621094 215.835938 463.746094 237.257812 458.703125 266.238281 L 448.308594 266.238281 C 449.253906 246.078125 448.9375 173.625 405.785156 164.175781 Z M 406.097656 192.84375 C 405.46875 192.527344 404.523438 192.527344 403.894531 192.84375 C 401.058594 193.472656 376.171875 201.03125 377.75 266.238281 L 370.816406 266.238281 C 370.503906 258.675781 370.1875 241.667969 373.023438 224.34375 C 376.171875 203.867188 384.679688 178.667969 404.839844 173.625 C 439.804688 182.445312 439.804688 248.597656 438.859375 266.238281 L 431.929688 266.238281 C 433.503906 202.292969 409.5625 193.785156 406.097656 192.84375 Z M 422.792969 266.238281 L 386.882812 266.238281 C 385.625 216.78125 400.429688 204.8125 404.839844 202.605469 C 409.25 204.8125 424.054688 216.78125 422.792969 266.238281 Z M 526.429688 154.726562 C 518.871094 157.5625 501.859375 166.066406 486.109375 190.007812 C 480.125 177.722656 466.578125 155.355469 442.324219 141.8125 C 449.882812 135.824219 456.183594 129.210938 458.703125 121.652344 C 469.414062 124.800781 479.496094 128.582031 486.425781 133.304688 C 486.738281 148.742188 491.78125 159.453125 499.339844 161.027344 C 501.230469 161.339844 508.476562 161.65625 512.253906 150.945312 C 514.144531 145.90625 520.445312 138.03125 528.636719 130.472656 C 526.429688 138.347656 525.800781 146.851562 526.429688 154.726562 Z M 404.839844 152.519531 C 388.457031 145.589844 364.519531 131.417969 360.109375 119.445312 C 380.898438 114.40625 401.6875 112.199219 404.839844 111.886719 C 407.988281 112.199219 428.777344 114.40625 449.570312 119.445312 C 445.160156 131.417969 421.21875 145.589844 404.839844 152.519531 Z M 487.371094 122.910156 C 460.59375 107.789062 408.933594 102.75 405.46875 102.4375 C 405.152344 102.4375 405.152344 102.4375 404.839844 102.4375 C 404.523438 102.4375 404.523438 102.4375 404.207031 102.4375 C 400.742188 102.75 349.082031 107.789062 322.308594 122.910156 C 318.527344 104.957031 304.039062 88.574219 285.453125 80.699219 C 304.351562 83.535156 321.675781 87 329.554688 88.574219 C 349.714844 92.671875 402.632812 92.984375 404.839844 92.984375 C 407.042969 92.984375 459.964844 92.671875 480.125 88.574219 C 488 87 505.324219 83.535156 524.226562 80.699219 C 505.640625 88.574219 490.835938 104.957031 487.371094 122.910156 Z M 323.253906 133.304688 C 330.183594 128.582031 340.261719 124.800781 350.972656 121.652344 C 353.492188 128.894531 359.792969 135.828125 367.351562 141.8125 C 343.097656 155.355469 329.554688 178.035156 323.566406 190.007812 C 307.816406 166.066406 290.808594 157.5625 283.246094 154.726562 C 283.878906 146.851562 283.246094 138.347656 281.042969 130.472656 C 289.230469 138.03125 295.53125 145.90625 297.421875 150.945312 C 301.203125 161.65625 308.132812 161.339844 310.335938 161.027344 C 317.898438 159.765625 322.9375 148.742188 323.253906 133.304688 Z M 281.988281 164.492188 C 294.273438 169.847656 327.976562 191.582031 341.523438 266.238281 L 328.292969 266.238281 C 320.734375 208.59375 288.289062 188.746094 273.167969 182.445312 C 276.945312 178.351562 279.78125 173.625 281.042969 168.902344 C 281.355469 167.328125 281.671875 166.066406 281.988281 164.492188 Z M 527.691406 164.492188 C 528.003906 166.066406 528.320312 167.640625 528.636719 168.902344 C 529.894531 173.625 532.730469 178.351562 536.511719 182.445312 C 521.390625 188.746094 488.945312 208.59375 481.382812 266.238281 L 468.152344 266.238281 C 481.699219 191.582031 515.40625 169.847656 527.691406 164.492188 Z M 614.945312 111.570312 C 611.796875 91.726562 592.265625 78.808594 564.546875 75.976562 C 570.214844 75.660156 575.253906 75.660156 579.980469 75.660156 C 593.839844 76.289062 606.441406 81.960938 614.316406 91.09375 C 621.875 99.914062 625.027344 111.257812 623.765625 124.171875 C 622.507812 135.828125 617.464844 144.960938 608.960938 150.945312 C 603.289062 155.042969 596.675781 157.246094 589.429688 157.5625 C 594.46875 155.988281 599.824219 153.464844 604.234375 149.371094 C 611.164062 143.386719 618.410156 131.730469 614.945312 111.570312 Z M 205.125 149.6875 C 209.535156 153.78125 214.578125 156.300781 219.929688 157.875 C 212.6875 157.246094 206.070312 155.042969 200.402344 151.261719 C 191.894531 145.277344 186.855469 135.828125 185.597656 124.484375 C 184.335938 111.570312 187.484375 100.230469 195.046875 91.410156 C 202.921875 82.277344 215.519531 76.605469 229.382812 75.976562 C 230.957031 75.976562 232.53125 75.976562 234.105469 75.976562 C 237.570312 75.976562 241.035156 75.976562 244.816406 76.289062 C 217.097656 79.125 197.566406 92.039062 194.417969 111.886719 C 191.265625 131.730469 198.511719 143.386719 205.125 149.6875 Z M 248.28125 198.195312 C 250.800781 197.25 253.007812 196.308594 255.210938 195.363281 C 258.675781 193.472656 262.140625 191.582031 264.976562 189.375 C 273.796875 192.210938 310.335938 206.703125 318.527344 266.238281 L 292.382812 266.238281 C 283.5625 235.050781 259.621094 209.222656 248.28125 198.195312 Z M 608.644531 1367.175781 C 623.449219 1367.175781 635.105469 1379.460938 635.105469 1394.894531 L 635.105469 1403.714844 C 635.105469 1419.152344 623.136719 1431.4375 608.644531 1431.4375 L 201.03125 1431.4375 C 186.226562 1431.4375 174.570312 1419.152344 174.570312 1403.714844 L 174.570312 1394.894531 C 174.570312 1379.460938 186.542969 1367.175781 201.03125 1367.175781 Z M 583.761719 1308.898438 C 592.894531 1308.898438 600.457031 1316.773438 600.457031 1326.226562 L 600.457031 1340.398438 C 600.457031 1349.851562 592.894531 1357.726562 583.761719 1357.726562 L 225.917969 1357.726562 C 216.78125 1357.726562 209.222656 1349.851562 209.222656 1340.398438 L 209.222656 1326.226562 C 209.222656 1316.773438 216.78125 1308.898438 225.917969 1308.898438 Z M 556.671875 1265.429688 C 562.96875 1265.429688 568.011719 1270.785156 568.011719 1277.398438 L 568.011719 1286.21875 C 568.011719 1292.835938 562.96875 1298.1875 556.671875 1298.1875 L 253.007812 1298.1875 C 246.707031 1298.1875 241.667969 1292.835938 241.667969 1286.21875 L 241.667969 1277.398438 C 241.667969 1270.785156 246.707031 1265.429688 253.007812 1265.429688 Z M 274.742188 1230.148438 L 534.933594 1230.148438 C 530.839844 1238.339844 530.210938 1249.992188 530.210938 1256.292969 L 279.78125 1256.292969 C 279.46875 1249.992188 278.835938 1238.339844 274.742188 1230.148438 Z M 547.851562 1187.9375 C 554.148438 1187.9375 559.191406 1193.292969 559.191406 1199.910156 L 559.191406 1208.726562 C 559.191406 1215.34375 554.148438 1220.699219 547.851562 1220.699219 L 261.828125 1220.699219 C 255.527344 1220.699219 250.488281 1215.34375 250.488281 1208.726562 L 250.488281 1199.910156 C 250.488281 1193.292969 255.527344 1187.9375 261.828125 1187.9375 Z M 532.414062 1178.804688 L 277.261719 1178.804688 L 296.792969 298.367188 L 512.886719 298.367188 Z M 530.210938 275.371094 C 532.730469 275.371094 534.933594 277.578125 534.933594 280.414062 L 534.933594 283.5625 C 534.933594 286.398438 532.730469 288.601562 530.210938 288.601562 L 279.78125 288.601562 C 277.261719 288.601562 275.058594 286.398438 275.058594 283.5625 L 275.058594 280.414062 C 275.058594 277.578125 277.261719 275.371094 279.78125 275.371094 Z M 516.980469 266.238281 L 490.835938 266.238281 C 499.023438 206.703125 535.566406 192.210938 544.386719 189.375 C 547.21875 191.582031 550.683594 193.472656 554.148438 195.363281 C 556.355469 196.621094 558.875 197.566406 561.082031 198.195312 C 550.054688 209.222656 526.113281 235.050781 516.980469 266.238281 Z M 516.980469 266.238281 " fill-opacity="1" fill-rule="nonzero"/></g></svg>