<svg xmlns="http://www.w3.org/2000/svg" xmlns:xlink="http://www.w3.org/1999/xlink" width="512" zoomAndPan="magnify" viewBox="0 0 384 383.999986" height="512" preserveAspectRatio="xMidYMid meet" version="1.0"><defs><clipPath id="1d17951161"><path d="M 33.070312 96 L 351 96 L 351 287.8125 L 33.070312 287.8125 Z M 33.070312 96 " clip-rule="nonzero"/></clipPath></defs><g clip-path="url(#1d17951161)"><path fill="#ffffff" d="M 292.710938 230.277344 C 302.414062 232.179688 313.257812 231.039062 323.527344 226.851562 C 339.503906 220.195312 350.917969 199.84375 350.347656 178.347656 C 349.96875 161.800781 342.738281 148.484375 329.996094 141.066406 L 327.710938 133.839844 L 338.363281 113.105469 L 337.222656 96.367188 L 46.574219 96.367188 L 45.433594 113.105469 L 56.085938 133.839844 L 53.804688 141.066406 C 41.25 148.484375 33.832031 161.800781 33.453125 178.347656 C 33.070312 199.84375 44.292969 220.195312 60.269531 226.851562 C 67.308594 229.707031 74.539062 231.226562 81.574219 231.226562 C 84.808594 231.226562 87.851562 230.847656 90.894531 230.277344 C 95.082031 234.082031 111.820312 250.25 118.285156 269.460938 L 116.195312 269.460938 C 111.4375 269.460938 107.632812 273.457031 107.632812 278.210938 L 107.632812 280.113281 C 107.632812 284.867188 111.4375 288.863281 116.195312 288.863281 L 120.949219 288.863281 L 109.15625 820.511719 L 105.542969 820.511719 C 98.695312 820.511719 92.988281 826.21875 92.988281 833.253906 L 92.988281 838.582031 C 92.988281 845.617188 98.503906 851.324219 105.542969 851.324219 C 105.921875 851.324219 106.492188 851.324219 107.253906 852.085938 C 109.726562 854.558594 110.679688 861.976562 110.679688 867.113281 L 100.214844 867.113281 C 93.367188 867.113281 87.664062 872.820312 87.664062 879.855469 L 87.664062 885.183594 C 87.664062 888.226562 88.613281 891.078125 90.324219 893.171875 L 83.667969 893.171875 C 75.109375 893.171875 68.070312 900.402344 68.070312 909.148438 L 68.070312 917.710938 C 68.070312 921.894531 69.59375 925.507812 72.066406 928.363281 L 68.640625 928.363281 C 56.65625 928.363281 46.957031 938.441406 46.957031 950.617188 L 46.957031 955.941406 C 46.957031 968.308594 56.65625 978.199219 68.640625 978.199219 L 314.777344 978.199219 C 326.761719 978.199219 336.460938 968.117188 336.460938 955.941406 L 336.460938 950.617188 C 336.460938 938.253906 326.761719 928.363281 314.777344 928.363281 L 311.355469 928.363281 C 313.828125 925.507812 315.347656 921.703125 315.347656 917.710938 L 315.347656 909.148438 C 315.347656 900.210938 308.308594 893.171875 299.75 893.171875 L 293.09375 893.171875 C 294.804688 890.890625 295.757812 888.226562 295.757812 885.183594 L 295.757812 879.855469 C 295.757812 872.820312 290.238281 867.113281 283.203125 867.113281 L 272.742188 867.113281 C 272.742188 861.976562 273.691406 854.75 276.164062 852.085938 C 276.925781 851.324219 277.496094 851.324219 277.875 851.324219 C 284.722656 851.324219 290.429688 845.617188 290.429688 838.582031 L 290.429688 833.253906 C 290.429688 826.21875 284.914062 820.511719 277.875 820.511719 L 274.261719 820.511719 L 262.46875 288.863281 L 267.222656 288.863281 C 271.980469 288.863281 275.785156 284.867188 275.785156 280.113281 L 275.785156 278.210938 C 275.785156 273.453125 271.980469 269.460938 267.222656 269.460938 L 265.132812 269.460938 C 271.789062 250.058594 288.527344 234.082031 292.710938 230.277344 Z M 51.710938 101.882812 L 331.898438 101.882812 L 332.46875 109.492188 L 192.28125 109.492188 C 192.089844 109.492188 191.898438 109.492188 191.710938 109.492188 C 191.519531 109.492188 191.328125 109.492188 191.136719 109.492188 L 50.949219 109.492188 Z M 52.851562 115.195312 L 191.328125 115.195312 C 191.519531 115.195312 191.710938 115.195312 191.898438 115.195312 C 192.089844 115.195312 192.28125 115.195312 192.46875 115.195312 L 330.945312 115.195312 L 323.335938 129.84375 L 60.460938 129.84375 Z M 324.667969 138.214844 C 323.90625 137.832031 323.148438 137.640625 322.578125 137.261719 C 320.105469 136.3125 317.25 135.738281 314.207031 135.167969 L 323.90625 135.167969 Z M 281.679688 135.359375 C 269.886719 136.3125 257.144531 138.023438 244.589844 139.734375 C 225.949219 142.207031 206.546875 144.871094 192.089844 144.871094 C 177.441406 144.871094 158.230469 142.207031 139.589844 139.734375 C 127.035156 138.023438 114.292969 136.3125 102.5 135.359375 Z M 69.78125 135.359375 C 66.738281 135.738281 63.886719 136.5 61.414062 137.453125 C 60.652344 137.640625 59.890625 138.023438 59.320312 138.402344 L 60.269531 135.550781 L 69.78125 135.550781 Z M 62.363281 221.527344 C 48.667969 215.820312 38.585938 197.179688 38.96875 178.347656 C 39.347656 161.039062 48.097656 148.105469 63.125 142.585938 C 68.261719 140.6875 75.296875 139.925781 83.476562 139.925781 C 99.074219 139.925781 119.046875 142.585938 138.449219 145.25 C 158.230469 147.914062 176.871094 150.386719 191.710938 150.386719 C 206.546875 150.386719 225.378906 147.914062 244.96875 145.25 C 274.640625 141.257812 305.265625 137.070312 320.292969 142.585938 C 335.320312 148.105469 344.070312 161.039062 344.449219 178.347656 C 344.832031 197.179688 334.75 215.820312 321.054688 221.527344 C 308.308594 226.851562 294.996094 226.851562 284.34375 221.71875 C 277.875 218.671875 273.121094 213.726562 271.789062 209.164062 C 269.886719 202.316406 269.316406 189.378906 275.402344 181.582031 C 276.164062 180.441406 277.117188 179.679688 278.066406 178.726562 C 280.730469 177.207031 283.390625 176.066406 285.863281 175.304688 C 287.578125 174.925781 289.289062 174.925781 291.191406 174.925781 C 292.710938 174.925781 293.855469 173.78125 294.042969 172.453125 C 294.234375 170.929688 293.09375 169.597656 291.570312 169.40625 C 289.480469 169.027344 287.195312 169.21875 284.914062 169.789062 C 281.300781 170.359375 277.875 171.691406 275.214844 173.78125 C 263.992188 180.25 253.339844 191.851562 251.246094 197.75 C 250.675781 199.652344 249.914062 200.03125 249.722656 200.222656 C 248.964844 200.03125 246.300781 196.800781 246.492188 187.667969 C 246.679688 174.355469 260.757812 161.230469 275.785156 159.898438 C 292.710938 158.566406 310.78125 163.320312 313.066406 176.828125 C 314.398438 184.433594 312.683594 190.710938 308.308594 194.707031 C 304.125 198.699219 298.230469 199.652344 294.613281 198.699219 C 291 197.941406 289.480469 194.515625 289.097656 191.472656 C 288.71875 188.429688 289.667969 184.246094 293.472656 182.34375 C 294.804688 181.773438 295.375 180.058594 294.804688 178.726562 C 294.234375 177.398438 292.710938 176.636719 291.191406 177.207031 C 283.390625 180.058594 278.445312 186.90625 278.828125 193.945312 C 279.207031 200.984375 284.914062 206.5 293.664062 208.59375 C 302.414062 210.683594 311.355469 209.164062 318.011719 204.21875 C 324.476562 199.652344 328.472656 192.425781 329.234375 184.054688 C 330.183594 174.734375 327.710938 166.363281 322.195312 159.707031 C 316.300781 153.050781 307.359375 148.863281 297.46875 148.484375 C 279.398438 147.722656 245.730469 154.382812 235.839844 156.472656 C 224.425781 158.945312 192.28125 159.136719 191.519531 159.136719 C 190.566406 159.136719 158.613281 158.945312 147.199219 156.472656 C 137.308594 154.382812 103.640625 147.722656 85.570312 148.484375 C 75.679688 148.863281 66.546875 153.050781 60.84375 159.707031 C 55.324219 166.175781 52.851562 174.542969 53.804688 184.054688 C 54.753906 192.613281 58.75 199.652344 65.027344 204.21875 C 71.683594 208.972656 80.625 210.496094 89.375 208.59375 C 98.3125 206.5 103.832031 200.984375 104.210938 193.945312 C 104.589844 186.71875 99.644531 180.058594 91.847656 177.207031 C 90.515625 176.636719 88.804688 177.398438 88.234375 178.730469 C 87.660156 180.058594 88.234375 181.773438 89.5625 182.34375 C 93.367188 184.246094 94.320312 188.429688 93.9375 191.472656 C 93.558594 194.324219 92.035156 197.75 88.421875 198.699219 C 84.808594 199.652344 78.914062 198.699219 74.726562 194.707031 C 70.351562 190.710938 68.640625 184.433594 69.972656 176.828125 C 72.253906 163.320312 90.324219 158.566406 107.253906 159.898438 C 122.472656 161.039062 136.355469 174.355469 136.546875 187.667969 C 136.738281 196.800781 134.074219 200.03125 133.3125 200.222656 C 133.125 200.222656 132.363281 199.652344 131.792969 197.75 C 129.699219 191.851562 119.046875 180.058594 107.824219 173.78125 C 104.972656 171.691406 101.738281 170.359375 98.125 169.789062 C 95.839844 169.21875 93.558594 169.027344 91.464844 169.40625 C 89.945312 169.597656 88.992188 170.929688 88.992188 172.453125 C 89.183594 173.972656 90.324219 175.113281 91.847656 174.925781 C 93.75 174.925781 95.460938 174.925781 97.171875 175.304688 C 99.644531 175.875 102.308594 177.015625 104.972656 178.730469 C 105.921875 179.488281 106.875 180.441406 107.632812 181.582031 C 113.722656 189.378906 113.152344 202.316406 111.25 209.164062 C 109.917969 213.726562 105.160156 218.484375 98.882812 221.71875 C 88.613281 226.851562 75.109375 226.851562 62.363281 221.527344 Z M 192.46875 207.832031 C 192.28125 207.832031 192.089844 207.832031 191.898438 207.832031 C 191.710938 207.832031 191.519531 207.832031 191.328125 207.832031 C 165.269531 213.539062 165.269531 257.285156 165.648438 269.460938 L 159.371094 269.460938 C 156.328125 252.152344 151.574219 239.027344 146.25 229.324219 C 148.148438 224.570312 156.710938 206.691406 174.398438 197.941406 C 181.816406 202.695312 189.238281 205.929688 190.757812 206.5 C 191.136719 206.691406 191.519531 206.691406 191.898438 206.691406 C 192.28125 206.691406 192.660156 206.691406 193.039062 206.5 C 194.5625 205.929688 201.980469 202.695312 209.398438 197.941406 C 227.089844 206.691406 235.648438 224.570312 237.550781 229.324219 C 232.226562 239.027344 227.46875 251.960938 224.425781 269.460938 L 218.148438 269.460938 C 218.71875 257.285156 218.53125 213.539062 192.46875 207.832031 Z M 192.660156 225.140625 C 192.28125 224.949219 191.710938 224.949219 191.328125 225.140625 C 189.617188 225.519531 174.589844 230.085938 175.539062 269.460938 L 171.355469 269.460938 C 171.167969 264.894531 170.976562 254.625 172.6875 244.164062 C 174.589844 231.796875 179.726562 216.582031 191.898438 213.539062 C 213.011719 218.863281 213.011719 258.808594 212.441406 269.460938 L 208.257812 269.460938 C 209.207031 230.847656 194.753906 225.710938 192.660156 225.140625 Z M 202.742188 269.460938 L 181.058594 269.460938 C 180.296875 239.597656 189.238281 232.367188 191.898438 231.039062 C 194.5625 232.367188 203.503906 239.597656 202.742188 269.460938 Z M 265.320312 202.125 C 260.757812 203.835938 250.484375 208.972656 240.976562 223.429688 C 237.359375 216.011719 229.179688 202.503906 214.535156 194.324219 C 219.101562 190.710938 222.90625 186.71875 224.425781 182.152344 C 230.894531 184.054688 236.980469 186.335938 241.164062 189.191406 C 241.355469 198.511719 244.398438 204.976562 248.964844 205.929688 C 250.105469 206.121094 254.480469 206.308594 256.761719 199.84375 C 257.902344 196.800781 261.707031 192.042969 266.652344 187.476562 C 265.320312 192.234375 264.941406 197.371094 265.320312 202.125 Z M 191.898438 200.792969 C 182.007812 196.609375 167.550781 188.050781 164.890625 180.820312 C 177.441406 177.777344 189.996094 176.445312 191.898438 176.253906 C 193.800781 176.445312 206.355469 177.777344 218.910156 180.820312 C 216.246094 188.050781 201.789062 196.609375 191.898438 200.792969 Z M 241.734375 182.914062 C 225.566406 173.78125 194.371094 170.738281 192.28125 170.550781 C 192.089844 170.550781 192.089844 170.550781 191.898438 170.550781 C 191.710938 170.550781 191.710938 170.550781 191.519531 170.550781 C 189.425781 170.738281 158.230469 173.78125 142.0625 182.914062 C 139.78125 172.070312 131.03125 162.179688 119.808594 157.425781 C 131.222656 159.136719 141.683594 161.230469 146.4375 162.179688 C 158.613281 164.652344 190.566406 164.84375 191.898438 164.84375 C 193.230469 164.84375 225.1875 164.652344 237.359375 162.179688 C 242.117188 161.230469 252.578125 159.136719 263.992188 157.425781 C 252.769531 162.179688 243.828125 172.070312 241.734375 182.914062 Z M 142.632812 189.191406 C 146.820312 186.335938 152.90625 184.054688 159.371094 182.152344 C 160.894531 186.527344 164.699219 190.710938 169.265625 194.324219 C 154.617188 202.503906 146.4375 216.199219 142.824219 223.429688 C 133.3125 208.972656 123.042969 203.835938 118.476562 202.125 C 118.855469 197.371094 118.476562 192.234375 117.144531 187.476562 C 122.089844 192.042969 125.894531 196.800781 127.035156 199.84375 C 129.320312 206.308594 133.503906 206.121094 134.835938 205.929688 C 139.398438 205.167969 142.445312 198.511719 142.632812 189.191406 Z M 117.714844 208.019531 C 125.132812 211.253906 145.488281 224.378906 153.667969 269.460938 L 145.675781 269.460938 C 141.113281 234.652344 121.519531 222.667969 112.390625 218.863281 C 114.671875 216.390625 116.382812 213.539062 117.144531 210.683594 C 117.335938 209.734375 117.527344 208.972656 117.714844 208.019531 Z M 266.082031 208.019531 C 266.273438 208.972656 266.464844 209.921875 266.652344 210.683594 C 267.414062 213.539062 269.125 216.390625 271.410156 218.863281 C 262.277344 222.667969 242.6875 234.652344 238.121094 269.460938 L 230.132812 269.460938 C 238.3125 224.378906 258.664062 211.253906 266.082031 208.019531 Z M 318.773438 176.066406 C 316.871094 164.082031 305.078125 156.285156 288.339844 154.570312 C 291.761719 154.382812 294.804688 154.382812 297.660156 154.382812 C 306.027344 154.761719 313.636719 158.183594 318.390625 163.703125 C 322.957031 169.027344 324.859375 175.875 324.097656 183.675781 C 323.335938 190.710938 320.292969 196.226562 315.15625 199.84375 C 311.734375 202.316406 307.738281 203.648438 303.363281 203.835938 C 306.410156 202.886719 309.640625 201.363281 312.304688 198.890625 C 316.488281 195.277344 320.863281 188.238281 318.773438 176.066406 Z M 71.304688 199.082031 C 73.964844 201.554688 77.011719 203.074219 80.242188 204.027344 C 75.867188 203.648438 71.875 202.316406 68.449219 200.03125 C 63.316406 196.417969 60.269531 190.710938 59.511719 183.863281 C 58.75 176.066406 60.652344 169.21875 65.21875 163.890625 C 69.972656 158.375 77.582031 154.953125 85.949219 154.570312 C 86.902344 154.570312 87.851562 154.570312 88.804688 154.570312 C 90.894531 154.570312 92.988281 154.570312 95.269531 154.761719 C 78.53125 156.472656 66.738281 164.273438 64.835938 176.253906 C 62.933594 188.238281 67.308594 195.277344 71.304688 199.082031 Z M 97.363281 228.375 C 98.886719 227.804688 100.214844 227.234375 101.546875 226.664062 C 103.640625 225.519531 105.734375 224.378906 107.445312 223.046875 C 112.769531 224.761719 134.835938 233.511719 139.78125 269.460938 L 123.992188 269.460938 C 118.667969 250.628906 104.210938 235.03125 97.363281 228.375 Z M 314.96875 934.257812 C 323.90625 934.257812 330.945312 941.675781 330.945312 950.996094 L 330.945312 956.324219 C 330.945312 965.644531 323.71875 973.0625 314.96875 973.0625 L 68.832031 973.0625 C 59.890625 973.0625 52.851562 965.644531 52.851562 956.324219 L 52.851562 950.996094 C 52.851562 941.675781 60.082031 934.257812 68.832031 934.257812 Z M 299.941406 899.070312 C 305.457031 899.070312 310.023438 903.824219 310.023438 909.53125 L 310.023438 918.089844 C 310.023438 923.796875 305.457031 928.550781 299.941406 928.550781 L 83.859375 928.550781 C 78.339844 928.550781 73.777344 923.796875 73.777344 918.089844 L 73.777344 909.53125 C 73.777344 903.824219 78.339844 899.070312 83.859375 899.070312 Z M 283.582031 872.820312 C 287.386719 872.820312 290.429688 876.054688 290.429688 880.046875 L 290.429688 885.375 C 290.429688 889.367188 287.386719 892.601562 283.582031 892.601562 L 100.214844 892.601562 C 96.410156 892.601562 93.367188 889.367188 93.367188 885.375 L 93.367188 880.046875 C 93.367188 876.054688 96.410156 872.820312 100.214844 872.820312 Z M 113.339844 851.515625 L 270.457031 851.515625 C 267.984375 856.460938 267.605469 863.5 267.605469 867.304688 L 116.382812 867.304688 C 116.195312 863.5 115.8125 856.460938 113.339844 851.515625 Z M 278.257812 826.027344 C 282.0625 826.027344 285.105469 829.261719 285.105469 833.253906 L 285.105469 838.582031 C 285.105469 842.574219 282.0625 845.808594 278.257812 845.808594 L 105.542969 845.808594 C 101.738281 845.808594 98.695312 842.574219 98.695312 838.582031 L 98.695312 833.253906 C 98.695312 829.261719 101.738281 826.027344 105.542969 826.027344 Z M 268.9375 820.511719 L 114.863281 820.511719 L 126.65625 288.863281 L 257.144531 288.863281 Z M 267.605469 274.976562 C 269.125 274.976562 270.457031 276.308594 270.457031 278.019531 L 270.457031 279.921875 C 270.457031 281.632812 269.125 282.964844 267.605469 282.964844 L 116.382812 282.964844 C 114.863281 282.964844 113.53125 281.632812 113.53125 279.921875 L 113.53125 278.019531 C 113.53125 276.308594 114.863281 274.976562 116.382812 274.976562 Z M 259.617188 269.460938 L 243.828125 269.460938 C 248.773438 233.511719 270.839844 224.761719 276.164062 223.046875 C 277.875 224.378906 279.96875 225.519531 282.0625 226.664062 C 283.390625 227.421875 284.914062 227.992188 286.246094 228.375 C 279.589844 235.03125 265.132812 250.628906 259.617188 269.460938 Z M 259.617188 269.460938 " fill-opacity="1" fill-rule="nonzero"/></g></svg>