<svg xmlns="http://www.w3.org/2000/svg" xmlns:xlink="http://www.w3.org/1999/xlink" width="512" zoomAndPan="magnify" viewBox="0 0 384 383.999986" height="512" preserveAspectRatio="xMidYMid meet" version="1.0"><defs><clipPath id="5cdbd38bcd"><path d="M 34.003906 108.035156 L 349.753906 108.035156 L 349.753906 265.535156 L 34.003906 265.535156 Z M 34.003906 108.035156 " clip-rule="nonzero"/></clipPath></defs><g clip-path="url(#5cdbd38bcd)"><path fill="#ffffff" d="M 293.644531 -482.601562 C 303.347656 -480.699219 314.1875 -481.839844 324.460938 -486.027344 C 340.4375 -492.683594 351.851562 -513.035156 351.28125 -534.53125 C 350.898438 -551.078125 343.671875 -564.394531 330.925781 -571.8125 L 328.644531 -579.039062 L 339.296875 -599.773438 L 338.15625 -616.511719 L 47.507812 -616.511719 L 46.367188 -599.773438 L 57.019531 -579.039062 L 54.738281 -571.8125 C 42.183594 -564.394531 34.765625 -551.078125 34.382812 -534.53125 C 34.003906 -513.035156 45.226562 -492.683594 61.203125 -486.027344 C 68.242188 -483.171875 75.46875 -481.652344 82.507812 -481.652344 C 85.742188 -481.652344 88.785156 -482.03125 91.828125 -482.601562 C 96.011719 -478.796875 112.75 -462.628906 119.21875 -443.417969 L 117.125 -443.417969 C 112.371094 -443.417969 108.566406 -439.421875 108.566406 -434.667969 L 108.566406 -432.765625 C 108.566406 -428.011719 112.371094 -424.015625 117.125 -424.015625 L 121.882812 -424.015625 L 110.089844 107.632812 L 106.476562 107.632812 C 99.628906 107.632812 93.921875 113.339844 93.921875 120.375 L 93.921875 125.703125 C 93.921875 132.738281 99.4375 138.445312 106.476562 138.445312 C 106.855469 138.445312 107.425781 138.445312 108.1875 139.207031 C 110.660156 141.679688 111.609375 149.097656 111.609375 154.234375 L 101.148438 154.234375 C 94.300781 154.234375 88.59375 159.941406 88.59375 166.980469 L 88.59375 172.304688 C 88.59375 175.347656 89.546875 178.203125 91.257812 180.292969 L 84.601562 180.292969 C 76.039062 180.292969 69.003906 187.523438 69.003906 196.273438 L 69.003906 204.832031 C 69.003906 209.015625 70.523438 212.628906 72.996094 215.484375 L 69.574219 215.484375 C 57.589844 215.484375 47.890625 225.566406 47.890625 237.738281 L 47.890625 243.0625 C 47.890625 255.429688 57.589844 265.320312 69.574219 265.320312 L 315.710938 265.320312 C 327.695312 265.320312 337.394531 255.238281 337.394531 243.0625 L 337.394531 237.738281 C 337.394531 225.375 327.695312 215.484375 315.710938 215.484375 L 312.285156 215.484375 C 314.757812 212.628906 316.28125 208.824219 316.28125 204.832031 L 316.28125 196.273438 C 316.28125 187.332031 309.242188 180.292969 300.683594 180.292969 L 294.027344 180.292969 C 295.738281 178.011719 296.6875 175.347656 296.6875 172.304688 L 296.6875 166.980469 C 296.6875 159.941406 291.171875 154.234375 284.132812 154.234375 L 273.671875 154.234375 C 273.671875 149.097656 274.625 141.871094 277.097656 139.207031 C 277.859375 138.445312 278.429688 138.445312 278.808594 138.445312 C 285.65625 138.445312 291.363281 132.738281 291.363281 125.703125 L 291.363281 120.375 C 291.363281 113.339844 285.847656 107.632812 278.808594 107.632812 L 275.195312 107.632812 L 263.402344 -424.015625 L 268.15625 -424.015625 C 272.910156 -424.015625 276.714844 -428.011719 276.714844 -432.765625 L 276.714844 -434.667969 C 276.714844 -439.421875 272.910156 -443.417969 268.15625 -443.417969 L 266.0625 -443.417969 C 272.722656 -462.820312 289.460938 -478.796875 293.644531 -482.601562 Z M 52.644531 -610.996094 L 332.828125 -610.996094 L 333.398438 -603.386719 L 193.210938 -603.386719 C 193.023438 -603.386719 192.832031 -603.386719 192.640625 -603.386719 C 192.453125 -603.386719 192.261719 -603.386719 192.070312 -603.386719 L 51.882812 -603.386719 Z M 53.785156 -597.683594 L 192.261719 -597.683594 C 192.453125 -597.683594 192.640625 -597.683594 192.832031 -597.683594 C 193.023438 -597.683594 193.210938 -597.683594 193.402344 -597.683594 L 331.878906 -597.683594 L 324.269531 -583.035156 L 61.394531 -583.035156 Z M 325.601562 -574.664062 C 324.839844 -575.046875 324.078125 -575.238281 323.507812 -575.617188 C 321.035156 -576.566406 318.183594 -577.136719 315.140625 -577.710938 L 324.839844 -577.710938 Z M 282.613281 -577.519531 C 270.820312 -576.566406 258.074219 -574.855469 245.519531 -573.144531 C 226.878906 -570.671875 207.476562 -568.007812 193.023438 -568.007812 C 178.375 -568.007812 159.164062 -570.671875 140.523438 -573.144531 C 127.96875 -574.855469 115.226562 -576.566406 103.429688 -577.519531 Z M 70.714844 -577.519531 C 67.671875 -577.136719 64.816406 -576.378906 62.34375 -575.425781 C 61.585938 -575.238281 60.824219 -574.855469 60.253906 -574.476562 L 61.203125 -577.328125 L 70.714844 -577.328125 Z M 63.296875 -491.351562 C 49.601562 -497.058594 39.519531 -515.699219 39.898438 -534.53125 C 40.28125 -551.839844 49.03125 -564.773438 64.058594 -570.289062 C 69.191406 -572.191406 76.230469 -572.953125 84.410156 -572.953125 C 100.007812 -572.953125 119.980469 -570.289062 139.382812 -567.628906 C 159.164062 -564.964844 177.804688 -562.492188 192.640625 -562.492188 C 207.476562 -562.492188 226.308594 -564.964844 245.902344 -567.628906 C 275.574219 -571.621094 306.199219 -575.808594 321.226562 -570.289062 C 336.253906 -564.773438 345.003906 -551.839844 345.382812 -534.53125 C 345.765625 -515.699219 335.683594 -497.058594 321.988281 -491.351562 C 309.242188 -486.027344 295.929688 -486.027344 285.277344 -491.160156 C 278.808594 -494.207031 274.054688 -499.152344 272.722656 -503.714844 C 270.820312 -510.5625 270.25 -523.5 276.335938 -531.296875 C 277.097656 -532.4375 278.046875 -533.199219 279 -534.148438 C 281.660156 -535.671875 284.324219 -536.8125 286.796875 -537.574219 C 288.507812 -537.953125 290.222656 -537.953125 292.125 -537.953125 C 293.644531 -537.953125 294.785156 -539.097656 294.976562 -540.425781 C 295.167969 -541.949219 294.027344 -543.28125 292.503906 -543.472656 C 290.410156 -543.851562 288.128906 -543.660156 285.847656 -543.089844 C 282.234375 -542.519531 278.808594 -541.1875 276.144531 -539.097656 C 264.921875 -532.628906 254.269531 -521.027344 252.179688 -515.128906 C 251.609375 -513.226562 250.847656 -512.847656 250.65625 -512.65625 C 249.894531 -512.847656 247.234375 -516.078125 247.421875 -525.210938 C 247.613281 -538.523438 261.6875 -551.648438 276.714844 -552.980469 C 293.644531 -554.3125 311.714844 -549.558594 314 -536.050781 C 315.328125 -528.445312 313.617188 -522.167969 309.242188 -518.171875 C 305.058594 -514.179688 299.160156 -513.226562 295.546875 -514.179688 C 291.933594 -514.9375 290.410156 -518.363281 290.03125 -521.40625 C 289.652344 -524.449219 290.601562 -528.632812 294.40625 -530.535156 C 295.738281 -531.105469 296.308594 -532.820312 295.738281 -534.148438 C 295.167969 -535.480469 293.644531 -536.242188 292.125 -535.671875 C 284.324219 -532.820312 279.378906 -525.972656 279.757812 -518.933594 C 280.140625 -511.894531 285.847656 -506.378906 294.597656 -504.285156 C 303.347656 -502.195312 312.285156 -503.714844 318.945312 -508.660156 C 325.410156 -513.226562 329.40625 -520.453125 330.167969 -528.824219 C 331.117188 -538.144531 328.644531 -546.515625 323.128906 -553.171875 C 317.230469 -559.828125 308.292969 -564.015625 298.402344 -564.394531 C 280.332031 -565.15625 246.664062 -558.496094 236.769531 -556.40625 C 225.359375 -553.933594 193.210938 -553.742188 192.453125 -553.742188 C 191.5 -553.742188 159.542969 -553.933594 148.132812 -556.40625 C 138.242188 -558.496094 104.574219 -565.15625 86.503906 -564.394531 C 76.609375 -564.015625 67.480469 -559.828125 61.773438 -553.171875 C 56.257812 -546.703125 53.785156 -538.335938 54.738281 -528.824219 C 55.6875 -520.265625 59.683594 -513.226562 65.960938 -508.660156 C 72.617188 -503.90625 81.554688 -502.382812 90.304688 -504.285156 C 99.246094 -506.378906 104.761719 -511.894531 105.144531 -518.933594 C 105.523438 -526.160156 100.578125 -532.820312 92.777344 -535.671875 C 91.449219 -536.242188 89.734375 -535.480469 89.164062 -534.148438 C 88.59375 -532.820312 89.164062 -531.105469 90.496094 -530.535156 C 94.300781 -528.632812 95.253906 -524.449219 94.871094 -521.40625 C 94.492188 -518.550781 92.96875 -515.128906 89.355469 -514.179688 C 85.742188 -513.226562 79.84375 -514.179688 75.660156 -518.171875 C 71.285156 -522.167969 69.574219 -528.445312 70.90625 -536.050781 C 73.1875 -549.558594 91.257812 -554.3125 108.1875 -552.980469 C 123.402344 -551.839844 137.289062 -538.523438 137.480469 -525.210938 C 137.667969 -516.078125 135.007812 -512.847656 134.246094 -512.65625 C 134.054688 -512.65625 133.292969 -513.226562 132.722656 -515.128906 C 130.632812 -521.027344 119.980469 -532.820312 108.757812 -539.097656 C 105.902344 -541.1875 102.671875 -542.519531 99.054688 -543.089844 C 96.773438 -543.660156 94.492188 -543.851562 92.398438 -543.472656 C 90.878906 -543.28125 89.925781 -541.949219 89.925781 -540.425781 C 90.117188 -538.90625 91.257812 -537.765625 92.777344 -537.953125 C 94.679688 -537.953125 96.394531 -537.953125 98.105469 -537.574219 C 100.578125 -537.003906 103.242188 -535.863281 105.902344 -534.148438 C 106.855469 -533.390625 107.804688 -532.4375 108.566406 -531.296875 C 114.652344 -523.5 114.082031 -510.5625 112.179688 -503.714844 C 110.851562 -499.152344 106.09375 -494.394531 99.816406 -491.160156 C 89.546875 -486.027344 76.039062 -486.027344 63.296875 -491.351562 Z M 193.402344 -505.046875 C 193.210938 -505.046875 193.023438 -505.046875 192.832031 -505.046875 C 192.640625 -505.046875 192.453125 -505.046875 192.261719 -505.046875 C 166.203125 -499.339844 166.203125 -455.59375 166.582031 -443.417969 L 160.304688 -443.417969 C 157.261719 -460.726562 152.507812 -473.851562 147.179688 -483.554688 C 149.082031 -488.308594 157.640625 -506.1875 175.332031 -514.9375 C 182.75 -510.183594 190.167969 -506.949219 191.691406 -506.378906 C 192.070312 -506.1875 192.453125 -506.1875 192.832031 -506.1875 C 193.210938 -506.1875 193.59375 -506.1875 193.972656 -506.378906 C 195.496094 -506.949219 202.914062 -510.183594 210.332031 -514.9375 C 228.023438 -506.1875 236.582031 -488.308594 238.484375 -483.554688 C 233.15625 -473.851562 228.402344 -460.917969 225.359375 -443.417969 L 219.082031 -443.417969 C 219.652344 -455.59375 219.460938 -499.339844 193.402344 -505.046875 Z M 193.59375 -487.738281 C 193.210938 -487.929688 192.640625 -487.929688 192.261719 -487.738281 C 190.550781 -487.359375 175.523438 -482.792969 176.472656 -443.417969 L 172.289062 -443.417969 C 172.097656 -447.984375 171.910156 -458.253906 173.621094 -468.714844 C 175.523438 -481.082031 180.660156 -496.296875 192.832031 -499.339844 C 213.945312 -494.015625 213.945312 -454.070312 213.375 -443.417969 L 209.191406 -443.417969 C 210.140625 -482.03125 195.683594 -487.167969 193.59375 -487.738281 Z M 203.675781 -443.417969 L 181.988281 -443.417969 C 181.230469 -473.28125 190.167969 -480.511719 192.832031 -481.839844 C 195.496094 -480.511719 204.433594 -473.28125 203.675781 -443.417969 Z M 266.253906 -510.753906 C 261.6875 -509.042969 251.417969 -503.90625 241.90625 -489.449219 C 238.292969 -496.867188 230.113281 -510.375 215.46875 -518.550781 C 220.03125 -522.167969 223.835938 -526.160156 225.359375 -530.726562 C 231.824219 -528.824219 237.914062 -526.542969 242.097656 -523.6875 C 242.289062 -514.367188 245.332031 -507.902344 249.894531 -506.949219 C 251.039062 -506.757812 255.414062 -506.570312 257.695312 -513.035156 C 258.835938 -516.078125 262.640625 -520.835938 267.585938 -525.402344 C 266.253906 -520.644531 265.875 -515.507812 266.253906 -510.753906 Z M 192.832031 -512.085938 C 182.941406 -516.269531 168.484375 -524.828125 165.820312 -532.058594 C 178.375 -535.101562 190.929688 -536.433594 192.832031 -536.621094 C 194.734375 -536.433594 207.289062 -535.101562 219.84375 -532.058594 C 217.179688 -524.828125 202.722656 -516.269531 192.832031 -512.085938 Z M 242.667969 -529.964844 C 226.5 -539.097656 195.304688 -542.140625 193.210938 -542.328125 C 193.023438 -542.328125 193.023438 -542.328125 192.832031 -542.328125 C 192.640625 -542.328125 192.640625 -542.328125 192.453125 -542.328125 C 190.359375 -542.140625 159.164062 -539.097656 142.996094 -529.964844 C 140.714844 -540.808594 131.964844 -550.699219 120.742188 -555.453125 C 132.152344 -553.742188 142.617188 -551.648438 147.371094 -550.699219 C 159.542969 -548.226562 191.5 -548.035156 192.832031 -548.035156 C 194.164062 -548.035156 226.121094 -548.226562 238.292969 -550.699219 C 243.046875 -551.648438 253.511719 -553.742188 264.921875 -555.453125 C 253.699219 -550.699219 244.761719 -540.808594 242.667969 -529.964844 Z M 143.566406 -523.6875 C 147.75 -526.542969 153.839844 -528.824219 160.304688 -530.726562 C 161.828125 -526.351562 165.632812 -522.167969 170.195312 -518.550781 C 155.550781 -510.375 147.371094 -496.679688 143.757812 -489.449219 C 134.246094 -503.90625 123.972656 -509.042969 119.410156 -510.753906 C 119.789062 -515.507812 119.410156 -520.644531 118.078125 -525.398438 C 123.023438 -520.835938 126.828125 -516.078125 127.96875 -513.035156 C 130.25 -506.570312 134.4375 -506.757812 135.769531 -506.949219 C 140.332031 -507.710938 143.375 -514.367188 143.566406 -523.6875 Z M 118.648438 -504.855469 C 126.066406 -501.625 146.417969 -488.5 154.597656 -443.417969 L 146.609375 -443.417969 C 142.042969 -478.226562 122.453125 -490.210938 113.324219 -494.015625 C 115.605469 -496.488281 117.316406 -499.339844 118.078125 -502.195312 C 118.269531 -503.144531 118.457031 -503.90625 118.648438 -504.855469 Z M 267.015625 -504.855469 C 267.207031 -503.90625 267.394531 -502.957031 267.585938 -502.195312 C 268.347656 -499.339844 270.058594 -496.488281 272.339844 -494.015625 C 263.210938 -490.210938 243.617188 -478.226562 239.054688 -443.417969 L 231.066406 -443.417969 C 239.246094 -488.5 259.597656 -501.625 267.015625 -504.855469 Z M 319.703125 -536.8125 C 317.800781 -548.796875 306.007812 -556.59375 289.269531 -558.308594 C 292.695312 -558.496094 295.738281 -558.496094 298.589844 -558.496094 C 306.960938 -558.117188 314.570312 -554.691406 319.324219 -549.175781 C 323.890625 -543.851562 325.792969 -537.003906 325.03125 -529.203125 C 324.269531 -522.167969 321.226562 -516.652344 316.089844 -513.035156 C 312.667969 -510.5625 308.671875 -509.230469 304.296875 -509.042969 C 307.339844 -509.992188 310.574219 -511.515625 313.238281 -513.988281 C 317.421875 -517.601562 321.796875 -524.640625 319.703125 -536.8125 Z M 72.234375 -513.796875 C 74.898438 -511.324219 77.941406 -509.804688 81.175781 -508.851562 C 76.800781 -509.230469 72.808594 -510.5625 69.382812 -512.847656 C 64.246094 -516.460938 61.203125 -522.167969 60.441406 -529.015625 C 59.683594 -536.8125 61.585938 -543.660156 66.148438 -548.988281 C 70.90625 -554.503906 78.511719 -557.925781 86.882812 -558.308594 C 87.832031 -558.308594 88.785156 -558.308594 89.734375 -558.308594 C 91.828125 -558.308594 93.921875 -558.308594 96.203125 -558.117188 C 79.464844 -556.40625 67.671875 -548.605469 65.769531 -536.621094 C 63.867188 -524.640625 68.242188 -517.601562 72.234375 -513.796875 Z M 98.296875 -484.503906 C 99.816406 -485.074219 101.148438 -485.644531 102.480469 -486.214844 C 104.574219 -487.359375 106.664062 -488.5 108.375 -489.832031 C 113.703125 -488.117188 135.769531 -479.367188 140.714844 -443.417969 L 124.925781 -443.417969 C 119.597656 -462.25 105.144531 -477.847656 98.296875 -484.503906 Z M 315.902344 221.378906 C 324.839844 221.378906 331.878906 228.796875 331.878906 238.117188 L 331.878906 243.445312 C 331.878906 252.765625 324.648438 260.183594 315.902344 260.183594 L 69.761719 260.183594 C 60.824219 260.183594 53.785156 252.765625 53.785156 243.445312 L 53.785156 238.117188 C 53.785156 228.796875 61.011719 221.378906 69.761719 221.378906 Z M 300.875 186.191406 C 306.390625 186.191406 310.953125 190.945312 310.953125 196.652344 L 310.953125 205.210938 C 310.953125 210.917969 306.390625 215.671875 300.875 215.671875 L 84.789062 215.671875 C 79.273438 215.671875 74.710938 210.917969 74.710938 205.210938 L 74.710938 196.652344 C 74.710938 190.945312 79.273438 186.191406 84.789062 186.191406 Z M 284.515625 159.941406 C 288.320312 159.941406 291.363281 163.175781 291.363281 167.167969 L 291.363281 172.496094 C 291.363281 176.488281 288.320312 179.722656 284.515625 179.722656 L 101.148438 179.722656 C 97.34375 179.722656 94.300781 176.488281 94.300781 172.496094 L 94.300781 167.167969 C 94.300781 163.175781 97.34375 159.941406 101.148438 159.941406 Z M 114.273438 138.636719 L 271.390625 138.636719 C 268.917969 143.582031 268.539062 150.621094 268.539062 154.425781 L 117.316406 154.425781 C 117.125 150.621094 116.746094 143.582031 114.273438 138.636719 Z M 279.1875 113.148438 C 282.992188 113.148438 286.035156 116.382812 286.035156 120.375 L 286.035156 125.703125 C 286.035156 129.695312 282.992188 132.929688 279.1875 132.929688 L 106.476562 132.929688 C 102.671875 132.929688 99.628906 129.695312 99.628906 125.703125 L 99.628906 120.375 C 99.628906 116.382812 102.671875 113.148438 106.476562 113.148438 Z M 269.867188 107.632812 L 115.796875 107.632812 L 127.589844 -424.015625 L 258.074219 -424.015625 Z M 268.539062 -437.902344 C 270.058594 -437.902344 271.390625 -436.570312 271.390625 -434.859375 L 271.390625 -432.957031 C 271.390625 -431.246094 270.058594 -429.914062 268.539062 -429.914062 L 117.316406 -429.914062 C 115.796875 -429.914062 114.464844 -431.246094 114.464844 -432.957031 L 114.464844 -434.859375 C 114.464844 -436.570312 115.796875 -437.902344 117.316406 -437.902344 Z M 260.546875 -443.417969 L 244.761719 -443.417969 C 249.707031 -479.367188 271.769531 -488.117188 277.097656 -489.832031 C 278.808594 -488.5 280.902344 -487.359375 282.992188 -486.214844 C 284.324219 -485.457031 285.847656 -484.886719 287.179688 -484.503906 C 280.519531 -477.847656 266.0625 -462.25 260.546875 -443.417969 Z M 260.546875 -443.417969 " fill-opacity="1" fill-rule="nonzero"/></g></svg>